{"accessors" : [{"bufferView" : 0, "byteOffset" : 0, "componentType" : 5125, "count" : 432564, "type" : "SCALAR", "max" : [375023], "min" : [0]}, {"bufferView" : 1, "byteOffset" : 0, "componentType" : 5126, "count" : 375024, "type" : "VEC3", "max" : [95, 101.050003051758, 12.8295946121216], "min" : [-143.5, -259, -429.605255126953]}, {"bufferView" : 1, "byteOffset" : 12, "componentType" : 5126, "count" : 375024, "type" : "VEC3", "max" : [1.00000441074371, 1.00000441074371, 1.00000441074371], "min" : [-1.00000441074371, -1.00000441074371, -1.00000441074371]}], "asset" : {"generator" : "Aspose.3D 20.1", "version" : "2.0"}, "buffers" : [{"uri" : "buffer.bin", "byteLength" : 10730840}], "bufferViews" : [{"buffer" : 0, "byteOffset" : 0, "byteLength" : 1730256, "target" : 34963}, {"buffer" : 0, "byteOffset" : 1730260, "byteLength" : 9000576, "byteStride" : 24, "target" : 34962}], "meshes" : [{"primitives" : [{"attributes" : {"POSITION" : 1, "NORMAL" : 2}, "indices" : 0, "mode" : 4}]}], "nodes" : [{"mesh" : 0, "name" : ""}], "scene" : 0, "scenes" : [{"nodes" : [0]}]}