{"accessors" : [{"bufferView" : 0, "byteOffset" : 0, "componentType" : 5125, "count" : 432564, "type" : "SCALAR", "max" : [310080], "min" : [0]}, {"bufferView" : 1, "byteOffset" : 0, "componentType" : 5126, "count" : 310081, "type" : "VEC3", "max" : [95, 101.050003051758, 12.8295946121216], "min" : [-143.5, -259, -429.605255126953]}, {"bufferView" : 1, "byteOffset" : 12, "componentType" : 5126, "count" : 310081, "type" : "VEC3", "max" : [1.00000441074371, 1.00000441074371, 1.00000441074371], "min" : [-1.00000441074371, -1.00000441074371, -1.00000441074371]}], "asset" : {"generator" : "Aspose.3D 20.1", "version" : "2.0"}, "buffers" : [{"uri" : "buffer.bin", "byteLength" : 9172208}], "bufferViews" : [{"buffer" : 0, "byteOffset" : 0, "byteLength" : 1730256, "target" : 34963}, {"buffer" : 0, "byteOffset" : 1730260, "byteLength" : 7441944, "byteStride" : 24, "target" : 34962}], "materials" : [{"pbrMetallicRoughness" : {"baseColorFactor" : [1, 1, 1, 1], "metallicFactor" : 1, "roughnessFactor" : 1}, "emissiveFactor" : [0, 0, 0], "alphaMode" : "OPAQUE", "doubleSided" : false}], "meshes" : [{"primitives" : [{"attributes" : {"POSITION" : 1, "NORMAL" : 2}, "indices" : 0, "material" : 0, "mode" : 4}]}], "nodes" : [{"mesh" : 0, "name" : "node_1"}, {"children" : [0], "name" : "Y_UP"}, {"children" : [1], "name" : "entity_1"}, {"children" : [2], "matrix" : [0.1, 0, 0, 0, 0, 0.1, 0, 0, 0, 0, 0.1, 0, 0, 0, 0, 1], "name" : "entity_0"}], "scene" : 0, "scenes" : [{"nodes" : [3]}]}