{"accessors" : [{"bufferView" : 0, "byteOffset" : 0, "componentType" : 5123, "count" : 23403, "type" : "SCALAR", "max" : [3915], "min" : [0]}, {"bufferView" : 1, "byteOffset" : 0, "componentType" : 5126, "count" : 3916, "type" : "VEC3", "max" : [12.5, 12.5, 64.5], "min" : [-12.5, -12.5, -2.22044604925031E-16]}], "asset" : {"generator" : "Aspose.3D 20.1", "version" : "2.0"}, "buffers" : [{"uri" : "buffer.bin", "byteLength" : 93808}], "bufferViews" : [{"buffer" : 0, "byteOffset" : 0, "byteLength" : 46808, "target" : 34963}, {"buffer" : 0, "byteOffset" : 46812, "byteLength" : 46992, "byteStride" : 12, "target" : 34962}], "meshes" : [{"primitives" : [{"attributes" : {"POSITION" : 1}, "indices" : 0, "mode" : 4}]}], "nodes" : [{"mesh" : 0, "name" : ""}, {"children" : [0], "name" : "STLB ATF 7.12.0.313"}], "scene" : 0, "scenes" : [{"nodes" : [1]}]}